<svg width="80" height="70" viewBox="0 0 80 70" fill="none" xmlns="http://www.w3.org/2000/svg">
<g clip-path="url(#clip0_1147_565)">
<path d="M5.58132 57.8877C2.83053 57.8877 0.00195312 60.0974 0.00195312 63.965C0.00195312 67.5009 2.48892 69.9983 5.58132 69.9983C8.13394 69.9983 9.27161 68.2808 9.27161 68.2808V69.0295C9.27161 69.3833 9.60535 69.7781 10.0184 69.7781H11.8636V58.1519H9.27161V59.6272C9.27161 59.6272 8.12441 57.8877 5.58132 57.8877V57.8877ZM6.04305 60.265C8.30754 60.265 9.49539 62.2614 9.49539 63.9642C9.49539 65.8608 8.08504 67.6621 6.04785 67.6621C4.34488 67.6621 2.639 66.2795 2.639 63.9392C2.639 61.8266 4.10702 60.265 6.04305 60.265Z" fill="#092F42"/>
<path d="M15.4656 69.7787C15.0674 69.7787 14.7188 69.4923 14.7188 69.03V58.1525H17.3107V59.5913C17.8981 58.7063 19.0455 57.8848 20.8068 57.8848C23.6856 57.8848 25.2185 60.1851 25.2185 62.3362V69.7787H23.4173C22.945 69.7787 22.6265 69.3823 22.6265 68.986V62.9087C22.6265 61.7163 21.8977 60.2683 20.2123 60.2683C18.3936 60.2683 17.3107 61.9912 17.3107 63.6133V69.7787L15.4656 69.7787Z" fill="#092F42"/>
<path d="M32.7746 57.8878C30.0239 57.8878 27.1953 60.0974 27.1953 63.9651C27.1953 67.5009 29.6823 69.9984 32.7746 69.9984C35.3273 69.9984 36.4649 68.2809 36.4649 68.2809V69.0295C36.4649 69.3834 36.7987 69.7782 37.2118 69.7782H39.0569V52.3389H36.4649V59.6272C36.4649 59.6272 35.3177 57.8877 32.7746 57.8877V57.8878ZM33.2364 60.2651C35.5009 60.2651 36.6887 62.2614 36.6887 63.9642C36.6887 65.8608 35.2784 67.6621 33.2412 67.6621C31.5382 67.6621 29.8323 66.2795 29.8323 63.9392C29.8323 61.8266 31.3003 60.2651 33.2364 60.2651Z" fill="#092F42"/>
<path d="M42.6599 69.7778C42.2617 69.7778 41.9131 69.4915 41.9131 69.0291V58.1516H44.505V60.0893C44.9512 59.0038 45.9139 58.0195 47.6242 58.0195C48.101 58.0195 48.5468 58.1076 48.5468 58.1076V60.794C48.5468 60.794 47.9901 60.5737 47.3167 60.5737C45.498 60.5737 44.505 62.2967 44.505 63.9188V69.7778H42.6599Z" fill="#092F42"/>
<path d="M64.2742 69.7776C63.876 69.7776 63.5273 69.4912 63.5273 69.0289V58.1514H66.1193V69.7776L64.2742 69.7776Z" fill="#092F42"/>
<path d="M73.719 57.8878C70.9682 57.8878 68.1396 60.0974 68.1396 63.9651C68.1396 67.5009 70.6266 69.9984 73.719 69.9984C76.2717 69.9984 77.4093 68.2809 77.4093 68.2809V69.0295C77.4093 69.3834 77.7431 69.7782 78.1562 69.7782H80.0013V52.3389H77.4093V59.6272C77.4093 59.6272 76.2621 57.8877 73.719 57.8877V57.8878ZM74.1808 60.2651C76.4453 60.2651 77.6331 62.2614 77.6331 63.9642C77.6331 65.8608 76.2228 67.6621 74.1856 67.6621C72.4826 67.6621 70.7767 66.2795 70.7767 63.9392C70.7767 61.8266 72.2447 60.2651 74.1808 60.2651Z" fill="#092F42"/>
<path d="M64.8047 55.645C65.7512 55.645 66.5185 54.8758 66.5185 53.927C66.5185 52.9782 65.7512 52.209 64.8047 52.209C63.8581 52.209 63.0908 52.9782 63.0908 53.927C63.0908 54.8758 63.8581 55.645 64.8047 55.645Z" fill="#092F42"/>
<path d="M55.3828 57.8848C52.502 57.8848 49.3369 60.0404 49.3369 63.9453C49.3369 67.5038 52.0328 69.9997 55.3765 69.9997C59.4973 69.9997 61.5095 66.679 61.5095 63.9679C61.5095 60.6411 58.9185 57.8848 55.3828 57.8848ZM55.3922 60.3112C57.3844 60.3112 58.8704 61.9207 58.8704 63.9527C58.8704 66.0198 57.2929 67.6149 55.3981 67.6149C53.6392 67.6149 51.9294 66.18 51.9294 63.9874C51.9294 61.7582 53.5556 60.3112 55.3922 60.3112Z" fill="#092F42"/>
<path d="M59.5249 13.5394L66.1566 2.02338C66.5309 1.37779 66.3046 0.557702 65.6692 0.182559C65.0339 -0.192578 64.2071 0.0255207 63.8416 0.671114L57.1228 12.3354C51.9967 9.98859 46.2265 8.67994 40.0212 8.67994C33.8159 8.67994 28.0457 9.98857 22.9196 12.3354L16.2008 0.671114C15.8266 0.0255207 15.0085 -0.192578 14.3644 0.182559C13.7204 0.557702 13.5028 1.37779 13.8771 2.02338L20.5088 13.5394C9.07295 19.751 1.32718 31.3542 0.0478516 44.9378H79.9946C78.7153 31.3542 70.9695 19.7509 59.525 13.5394H59.5249ZM21.6664 33.6836C19.8126 33.6836 18.3157 32.1743 18.3157 30.3248C18.3157 28.4665 19.8213 26.966 21.6664 26.966C23.5201 26.966 25.017 28.4752 25.017 30.3248C25.0258 32.1743 23.5201 33.6836 21.6664 33.6836ZM58.3674 33.6836C56.5137 33.6836 55.0167 32.1743 55.0167 30.3248C55.0167 28.4665 56.5224 26.966 58.3674 26.966C60.2212 26.966 61.7181 28.4752 61.7181 30.3248C61.7268 32.1743 60.2212 33.6836 58.3674 33.6836Z" fill="#32DE84"/>
</g>
<defs>
<clipPath id="clip0_1147_565">
<rect width="80" height="70" fill="white"/>
</clipPath>
</defs>
</svg>
