<svg width="76" height="80" viewBox="0 0 76 80" fill="none" xmlns="http://www.w3.org/2000/svg">
<path d="M25.8803 36.5592C25.8522 51.9991 38.4593 64.9275 53.6495 65.0417C53.7619 65.0417 53.8461 65.0417 53.9584 65.0417C55.952 65.0417 56.3731 67.81 54.4919 68.5235C43.036 72.8615 32.3663 71.1492 24.1394 64.3853C25.0941 67.9242 27.0595 72.0339 30.3447 76.4861C31.6082 78.1984 29.8393 80.7385 27.958 79.7967C0.132602 65.8979 -6.29729 37.6722 5.88862 18.2939C11.6727 7.70569 24.6729 0 38.2066 0C44.3838 0 50.224 1.59822 55.3062 4.39509C57.1593 5.39398 56.4012 8.24794 54.2953 8.2194C54.1549 8.2194 53.9865 8.2194 53.8461 8.2194C38.4312 8.19086 25.9083 20.891 25.8803 36.5592Z" fill="#128AED"/>
<path d="M75.9997 36.7885C75.9997 46.4634 70.4964 54.9967 63.0838 60.1339C61.6237 61.1328 59.8829 59.3633 60.8937 57.9078C65.0492 51.943 67.464 44.6654 67.464 36.817C67.464 28.9687 65.0212 21.6911 60.8937 15.7263C59.8829 14.2708 61.6237 12.4728 63.0838 13.5002C70.4964 18.6088 75.9997 27.1421 75.9997 36.7885Z" fill="#128AED"/>
<path d="M62.8321 36.7907C62.8321 44.5249 58.4239 51.3458 52.4994 55.4555C51.3482 56.2546 49.9443 54.8277 50.7305 53.6575C54.0437 48.8914 55.9811 43.0694 55.9811 36.7907C55.9811 30.512 54.0437 24.6899 50.7305 19.9238C49.9162 18.7537 51.3201 17.3267 52.4994 18.1258C58.4239 22.2355 62.8321 29.085 62.8321 36.7907Z" fill="#128AED"/>
<path d="M50.2525 36.7884C50.2525 42.6676 46.9112 47.8618 42.3906 50.9726C41.5202 51.5719 40.4532 50.4874 41.0429 49.6027C43.5699 45.9782 45.03 41.5545 45.03 36.7884C45.03 32.0223 43.5418 27.5987 41.0429 23.9741C40.4251 23.0894 41.4921 22.0049 42.3906 22.6042C46.9112 25.7436 50.2525 30.9378 50.2525 36.7884Z" fill="#128AED"/>
<path d="M34.7531 42.6377C37.932 42.6377 40.5091 40.0183 40.5091 36.7871C40.5091 33.5559 37.932 30.9365 34.7531 30.9365C31.5741 30.9365 28.9971 33.5559 28.9971 36.7871C28.9971 40.0183 31.5741 42.6377 34.7531 42.6377Z" fill="#128AED"/>
</svg>
