<svg width="90" height="90" viewBox="0 0 90 90" fill="none" xmlns="http://www.w3.org/2000/svg">
<path fill-rule="evenodd" clip-rule="evenodd" d="M62.586 31.284C63.038 31.7862 63.1259 32.3386 62.8497 32.9413L42.5093 76.5225C42.1828 77.1503 41.6555 77.4642 40.9273 77.4642C40.8268 77.4642 40.651 77.439 40.3999 77.3888C39.973 77.2633 39.6528 77.0247 39.4394 76.6731C39.2259 76.3216 39.1694 75.9449 39.2699 75.5431L46.6904 45.1078L31.3974 48.9122C31.2969 48.9373 31.1463 48.9499 30.9454 48.9499C30.4934 48.9499 30.1041 48.8118 29.7777 48.5356C29.3257 48.1589 29.1625 47.6692 29.288 47.0665L36.8592 15.9909C36.9596 15.6393 37.1605 15.3505 37.4619 15.1245C37.7632 14.8985 38.1148 14.7855 38.5165 14.7855H50.8714C51.3486 14.7855 51.7503 14.9425 52.0768 15.2564C52.4032 15.5703 52.5665 15.9407 52.5665 16.3676C52.5665 16.5684 52.5037 16.7945 52.3781 17.0456L45.937 34.4856L60.8533 30.7942C61.0542 30.744 61.2049 30.7189 61.3053 30.7189C61.7824 30.7189 62.2093 30.9072 62.586 31.2839L62.586 31.284Z" fill="#128AED"/>
</svg>
