<svg width="90" height="83" viewBox="0 0 90 83" fill="none" xmlns="http://www.w3.org/2000/svg">
<path fill-rule="evenodd" clip-rule="evenodd" d="M38.4847 49.807C40.8285 47.4633 42.0004 44.6351 42.0004 41.3226C42.0004 38.0101 40.8285 35.182 38.4847 32.8383C36.141 30.4945 33.3128 29.3226 30.0003 29.3226C26.6878 29.3226 23.8597 30.4945 21.516 32.8383C19.1722 35.182 18.0003 38.0101 18.0003 41.3226C18.0003 44.6351 19.1722 47.4633 21.516 49.807C23.8597 52.1508 26.6878 53.3227 30.0003 53.3227C33.3128 53.3227 36.141 52.1508 38.4847 49.807ZM77.9997 65.3226C77.9997 63.6976 77.406 62.2913 76.2185 61.1038C75.031 59.9163 73.6247 59.3226 71.9997 59.3226C70.3747 59.3226 68.9685 59.9163 67.781 61.1038C66.5935 62.2913 65.9997 63.6976 65.9997 65.3226C65.9997 66.9789 66.5856 68.3929 67.7575 69.5648C68.9294 70.7367 70.3435 71.3226 71.9997 71.3226C73.656 71.3226 75.07 70.7367 76.2419 69.5648C77.4138 68.3929 77.9997 66.9789 77.9997 65.3226ZM77.9997 17.3225C77.9997 15.6975 77.406 14.2913 76.2185 13.1038C75.031 11.9163 73.6247 11.3225 71.9997 11.3225C70.3747 11.3225 68.9685 11.9163 67.781 13.1038C66.5935 14.2913 65.9997 15.6975 65.9997 17.3225C65.9997 18.9788 66.5856 20.3929 67.7575 21.5648C68.9294 22.7366 70.3435 23.3226 71.9997 23.3226C73.656 23.3226 75.07 22.7366 76.2419 21.5648C77.4138 20.3929 77.9997 18.9788 77.9997 17.3225ZM60.0001 37.0569V45.7288C60.0001 46.0413 59.8907 46.346 59.672 46.6429C59.4532 46.9398 59.2032 47.1038 58.922 47.1351L51.6563 48.2601C51.3126 49.3538 50.8126 50.5413 50.1563 51.8226C51.2188 53.3226 52.6251 55.1195 54.3751 57.2132C54.5938 57.5257 54.7032 57.8382 54.7032 58.1507C54.7032 58.5257 54.5938 58.8226 54.3751 59.0413C53.6563 59.9788 52.3673 61.3773 50.5079 63.2367C48.6485 65.0961 47.4219 66.0257 46.8282 66.0257C46.4845 66.0257 46.1563 65.9164 45.8438 65.6976L40.4532 61.4788C39.2969 62.0726 38.0938 62.557 36.8438 62.932C36.5001 66.307 36.1407 68.7289 35.7657 70.1976C35.5469 70.9476 35.0782 71.3226 34.3594 71.3226H25.6407C25.2969 71.3226 24.9844 71.2054 24.7032 70.9711C24.4219 70.7367 24.2657 70.4632 24.2344 70.1507L23.1563 62.9789C22.0938 62.6664 20.9219 62.182 19.6407 61.5257L14.1094 65.6976C13.8906 65.9164 13.5781 66.0258 13.1719 66.0258C12.8281 66.0258 12.5 65.9008 12.1875 65.6508C7.68751 61.4945 5.43751 58.9945 5.43751 58.1507C5.43751 57.8695 5.54688 57.5726 5.76563 57.2601C6.07813 56.8226 6.71876 55.9945 7.68751 54.7757C8.65626 53.557 9.39064 52.6039 9.89064 51.9163C9.17189 50.5413 8.62501 49.2601 8.25001 48.0726L1.125 46.9476C0.812502 46.9163 0.546877 46.7679 0.328127 46.5023C0.109376 46.2366 0 45.932 0 45.5882V36.9163C0 36.6038 0.109376 36.2991 0.328127 36.0022C0.546879 35.7054 0.796879 35.5413 1.07813 35.5101L8.34378 34.385C8.68753 33.2913 9.18753 32.1038 9.84378 30.8225C8.78128 29.3225 7.37502 27.5257 5.62501 25.4319C5.40626 25.0882 5.29689 24.7757 5.29689 24.4944C5.29689 24.1194 5.40626 23.8069 5.62501 23.5569C6.31252 22.6194 7.59377 21.2288 9.46878 19.385C11.3438 17.5413 12.5781 16.6194 13.1719 16.6194C13.5156 16.6194 13.8438 16.7288 14.1563 16.9475L19.5469 21.1663C20.6094 20.6038 21.8125 20.1038 23.1563 19.6663C23.5 16.2913 23.8594 13.885 24.2344 12.4475C24.4532 11.6975 24.9219 11.3225 25.6407 11.3225H34.3594C34.7032 11.3225 35.0157 11.4397 35.2969 11.6741C35.5782 11.9085 35.7344 12.1819 35.7657 12.4944L36.8438 19.6663C37.9063 19.9788 39.0782 20.4632 40.3594 21.1194L45.8907 16.9475C46.1407 16.7288 46.4532 16.6194 46.8282 16.6194C47.172 16.6194 47.5001 16.7444 47.8126 16.9944C52.3126 21.1506 54.5626 23.6506 54.5626 24.4944C54.5626 24.7757 54.4532 25.0725 54.2345 25.385C53.8595 25.885 53.2032 26.7288 52.2657 27.9163C51.3282 29.1038 50.6251 30.0413 50.1563 30.7288C50.8751 32.2288 51.4063 33.51 51.7501 34.5725L58.8751 35.6507C59.1876 35.7132 59.4532 35.8772 59.672 36.1429C59.8907 36.4085 60.0001 36.7132 60.0001 37.0569H60.0001ZM89.9999 62.0414V68.604C89.9999 69.104 87.6718 69.5883 83.0155 70.0571C82.6405 70.9008 82.1718 71.7133 81.6093 72.4946C83.203 76.0258 83.9999 78.1821 83.9999 78.9634C83.9999 79.0884 83.9374 79.1977 83.8124 79.2915C79.9999 81.5102 78.0624 82.6196 77.9999 82.6196C77.7499 82.6196 77.0312 81.8853 75.8437 80.4165C74.6562 78.9477 73.8436 77.8852 73.4061 77.229C72.7811 77.2915 72.3124 77.3228 71.9999 77.3228C71.6874 77.3228 71.2186 77.2915 70.5936 77.229C70.1561 77.8853 69.3436 78.9478 68.1561 80.4165C66.9686 81.8853 66.2499 82.6196 65.9999 82.6196C65.9374 82.6196 63.9999 81.5102 60.1874 79.2915C60.0624 79.1977 59.9999 79.0884 59.9999 78.9634C59.9999 78.1821 60.7967 76.0258 62.3905 72.4946C61.828 71.7133 61.3593 70.9008 60.9842 70.0571C56.328 69.5883 53.9999 69.104 53.9999 68.604V62.0414C53.9999 61.5414 56.328 61.0571 60.9842 60.5883C61.3905 59.6821 61.8593 58.8696 62.3905 58.1508C60.7967 54.6196 59.9999 52.4633 59.9999 51.682C59.9999 51.557 60.0624 51.4477 60.1874 51.3539C60.3124 51.2914 60.8592 50.9789 61.828 50.4164C62.7968 49.8539 63.7186 49.3227 64.5936 48.8227C65.4686 48.3227 65.9374 48.0727 65.9999 48.0727C66.2499 48.0727 66.9686 48.7992 68.1561 50.2523C69.3436 51.7055 70.1561 52.7602 70.5936 53.4164C71.2186 53.3539 71.6874 53.3227 71.9999 53.3227C72.3124 53.3227 72.7812 53.3539 73.4062 53.4164C74.9999 51.1977 76.4374 49.4476 77.7187 48.1664L77.9999 48.0727C78.1249 48.0727 80.0624 49.1664 83.8124 51.3539C83.9374 51.4477 83.9999 51.557 83.9999 51.682C83.9999 52.4633 83.203 54.6196 81.6093 58.1508C82.1405 58.8696 82.6093 59.6821 83.0155 60.5883C87.6718 61.0571 89.9999 61.5415 89.9999 62.0415L89.9999 62.0414ZM89.9999 14.0411V20.6036C89.9999 21.1036 87.6718 21.5879 83.0155 22.0567C82.6405 22.9005 82.1718 23.713 81.6093 24.4942C83.203 28.0255 83.9999 30.1817 83.9999 30.963C83.9999 31.088 83.9374 31.1974 83.8124 31.2911C79.9999 33.5099 78.0624 34.6192 77.9999 34.6192C77.7499 34.6192 77.0312 33.8849 75.8437 32.4161C74.6562 30.9474 73.8436 29.8849 73.4061 29.2286C72.7811 29.2911 72.3124 29.3224 71.9999 29.3224C71.6874 29.3224 71.2186 29.2911 70.5936 29.2286C70.1561 29.8849 69.3436 30.9474 68.1561 32.4161C66.9686 33.8849 66.2499 34.6192 65.9999 34.6192C65.9374 34.6192 63.9999 33.5099 60.1874 31.2911C60.0624 31.1974 59.9999 31.088 59.9999 30.963C59.9999 30.1817 60.7967 28.0255 62.3905 24.4942C61.828 23.713 61.3593 22.9005 60.9842 22.0567C56.328 21.5879 53.9999 21.1036 53.9999 20.6036V14.0411C53.9999 13.5411 56.328 13.0567 60.9842 12.5879C61.3905 11.6817 61.8593 10.8692 62.3905 10.1504C60.7967 6.61917 59.9999 4.46291 59.9999 3.68165C59.9999 3.55665 60.0624 3.44728 60.1874 3.35353C60.3124 3.29103 60.8592 2.97853 61.828 2.41602C62.7968 1.85352 63.7186 1.32227 64.5936 0.822273C65.4686 0.322272 65.9374 0.0722715 65.9999 0.0722715C66.2499 0.0722715 66.9686 0.798836 68.1561 2.25196C69.3436 3.70509 70.1561 4.75978 70.5936 5.41603C71.2186 5.35353 71.6874 5.32228 71.9999 5.32228C72.3124 5.32228 72.7812 5.35353 73.4062 5.41603C74.9999 3.19726 76.4374 1.44726 77.7187 0.166016L77.9999 0.0722656C78.1249 0.0722656 80.0624 1.16602 83.8124 3.35354C83.9374 3.44729 83.9999 3.55666 83.9999 3.68166C83.9999 4.46292 83.203 6.61917 81.6093 10.1504C82.1405 10.8692 82.6093 11.6817 83.0155 12.5879C87.6718 13.0567 89.9999 13.5411 89.9999 14.0411L89.9999 14.0411Z" fill="#128AED"/>
</svg>
