<svg width="84" height="84" viewBox="0 0 84 84" fill="none" xmlns="http://www.w3.org/2000/svg">
<path d="M69.8252 0H65.4502H37.4502H33.0752C27.7657 0 23.4502 4.3155 23.4502 9.625V74.375C23.4502 79.6845 27.7657 84 33.0752 84H69.8252C75.1347 84 79.4502 79.6845 79.4502 74.375V9.625C79.4502 4.3155 75.1347 0 69.8252 0ZM72.4502 73.5C72.4502 75.432 70.8822 77 68.9502 77H33.9502C32.0182 77 30.4502 75.432 30.4502 73.5V10.5C30.4502 8.568 32.0182 7 33.9502 7H35.7002C37.6322 7 39.2002 8.568 39.2002 10.5C39.2002 12.432 40.7682 14 42.7002 14H60.2002C62.1322 14 63.7002 12.432 63.7002 10.5C63.7002 8.568 65.2682 7 67.2002 7H68.9502C70.8822 7 72.4502 8.568 72.4502 10.5V73.5Z" fill="#128AED"/>
<path d="M7.2002 21.75C7.2002 20.0931 8.54334 18.75 10.2002 18.75H27.4502V73.65H10.2002C8.54334 73.65 7.2002 72.3069 7.2002 70.65V21.75Z" stroke="#128AED" stroke-width="6" stroke-linejoin="round"/>
</svg>
