<svg width="90" height="90" viewBox="0 0 90 90" fill="none" xmlns="http://www.w3.org/2000/svg">
<path fill-rule="evenodd" clip-rule="evenodd" d="M48.8244 67.9646C46.9913 69.7978 45.8236 70.7144 45.3214 70.7144C44.8191 70.7144 43.6514 69.7915 41.8183 67.9458C39.9851 66.1001 39.0686 64.9261 39.0686 64.4239C39.0686 63.6203 39.8533 62.9423 41.4228 62.3899C42.9923 61.8374 44.2918 61.5612 45.3214 61.5612C46.3509 61.5612 47.6505 61.8374 49.2199 62.3899C50.7894 62.9423 51.5742 63.6203 51.5742 64.4239C51.5742 64.9261 50.6576 66.1064 48.8244 67.9646ZM55.4916 60.5065C55.4413 60.5065 54.9391 60.1926 53.9849 59.5648C53.0306 58.937 51.7562 58.3092 50.1616 57.6814C48.567 57.0536 46.9536 56.7397 45.3213 56.7397C43.6891 56.7397 42.0757 57.0536 40.4811 57.6814C38.8865 58.3092 37.6184 58.937 36.6767 59.5648C35.735 60.1926 35.2265 60.5065 35.1511 60.5065C34.6991 60.5065 33.5252 59.5648 31.6292 57.6814C29.7333 55.798 28.7853 54.6304 28.7853 54.1783C28.7853 53.8519 28.9109 53.5631 29.162 53.312C31.1207 51.3784 33.5817 49.8592 36.5448 48.7542C39.508 47.6493 42.4335 47.0969 45.3213 47.0969C48.2092 47.0969 51.1347 47.6493 54.0978 48.7542C57.061 49.8591 59.522 51.3784 61.4807 53.312C61.7318 53.5631 61.8573 53.8519 61.8573 54.1783C61.8573 54.6304 60.9094 55.798 59.0134 57.6814C57.1175 59.5648 55.9436 60.5065 55.4915 60.5065H55.4916ZM65.7747 50.261C65.4985 50.261 65.2097 50.1605 64.9084 49.9597C61.4932 47.3229 58.3291 45.3831 55.4162 44.14C52.5032 42.897 49.1383 42.2755 45.3213 42.2755C43.1868 42.2755 41.046 42.5517 38.899 43.1042C36.752 43.6566 34.8811 44.3221 33.2866 45.1006C31.692 45.879 30.2669 46.6575 29.0113 47.4359C27.7557 48.2144 26.7638 48.8799 26.0356 49.4323C25.3074 49.9848 24.9181 50.261 24.8679 50.261C24.441 50.261 23.2859 49.3193 21.4025 47.4359C19.5191 45.5526 18.5774 44.3849 18.5774 43.9329C18.5774 43.6315 18.703 43.3553 18.9541 43.1042C22.2688 39.7895 26.2867 37.2155 31.0077 35.3824C35.7287 33.5492 40.4999 32.6326 45.3213 32.6326C50.1427 32.6326 54.914 33.5492 59.6349 35.3824C64.3559 37.2155 68.3738 39.7895 71.6885 43.1042C71.9396 43.3553 72.0652 43.6315 72.0652 43.9329C72.0652 44.3849 71.1235 45.5526 69.2401 47.4359C67.3568 49.3193 66.2016 50.261 65.7747 50.261H65.7747ZM75.9827 40.0531C75.7065 40.0531 75.4303 39.9401 75.154 39.7141C70.6591 35.7716 65.9946 32.8021 61.1606 30.8058C56.3266 28.8094 51.0469 27.8112 45.3214 27.8112C39.596 27.8112 34.3163 28.8094 29.4823 30.8058C24.6483 32.8021 19.9838 35.7716 15.4888 39.7141C15.2126 39.9401 14.9364 40.0531 14.6602 40.0531C14.2333 40.0531 13.0718 39.1114 11.1759 37.2281C9.27999 35.3447 8.33203 34.177 8.33203 33.725C8.33203 33.3985 8.45759 33.1097 8.70871 32.8586C13.4046 28.1879 18.9919 24.5718 25.4707 22.0104C31.9495 19.449 38.5664 18.1683 45.3214 18.1683C52.0765 18.1683 58.6934 19.449 65.1721 22.0104C71.651 24.5718 77.2383 28.1879 81.9342 32.8586C82.1853 33.1097 82.3108 33.3985 82.3108 33.725C82.3108 34.177 81.3629 35.3447 79.4669 37.2281C77.571 39.1114 76.4096 40.0531 75.9827 40.0531H75.9827Z" fill="#128AED"/>
</svg>
