<svg width="106" height="60" viewBox="0 0 106 60" fill="none" xmlns="http://www.w3.org/2000/svg">
<path d="M78.8595 18.0779L87.6524 2.70233C88.1486 1.84037 87.8486 0.745432 87.0062 0.244559C86.1638 -0.256305 85.0676 0.0348895 84.583 0.896854L75.6746 16.4704C68.878 13.3371 61.2275 11.5898 52.9999 11.5898C44.7724 11.5898 37.1219 13.3371 30.3252 16.4704L21.4169 0.896854C20.9207 0.0348895 19.836 -0.256305 18.9821 0.244559C18.1282 0.745432 17.8397 1.84037 18.3359 2.70233L27.1288 18.0779C11.9662 26.3714 1.69624 41.8635 0 59.9995H106C104.304 41.8633 94.0337 26.3712 78.8596 18.0779H78.8595ZM28.6636 44.9735C26.2057 44.9735 24.221 42.9584 24.221 40.489C24.221 38.0079 26.2173 36.0044 28.6636 36.0044C31.1214 36.0044 33.1062 38.0195 33.1062 40.489C33.1178 42.9584 31.1214 44.9735 28.6636 44.9735ZM77.3249 44.9735C74.867 44.9735 72.8823 42.9584 72.8823 40.489C72.8823 38.0079 74.8785 36.0044 77.3249 36.0044C79.7827 36.0044 81.7675 38.0195 81.7675 40.489C81.779 42.9584 79.7827 44.9735 77.3249 44.9735Z" fill="#32DE84"/>
</svg>
